<svg width="22" height="22" viewBox="0 0 22 22" fill="none" xmlns="http://www.w3.org/2000/svg">
<circle cx="11" cy="11" r="10.5" fill="#FFFDFB"/>
<circle cx="11" cy="11" r="10.5" stroke="black"/>
<circle cx="11" cy="11" r="10.5" stroke="black" stroke-opacity="0.2"/>
<path d="M21.5 11C21.5 15.5566 18.5954 19.4371 14.5363 20.8891V13.9344H16.4084H16.848L16.9042 13.4985L17.2597 10.7443L17.3325 10.1803H16.7639H14.5363V8.92609C14.5363 8.54978 14.5948 8.37254 14.6719 8.28103C14.7327 8.20882 14.8942 8.08852 15.3979 8.08852H16.8438H17.3438V7.58852V5.13191V4.6939L16.9095 4.63626C16.6332 4.59957 15.7479 4.52365 14.725 4.52365C13.5752 4.52365 12.5553 4.87612 11.8214 5.60153C11.086 6.32846 10.6934 7.37493 10.6934 8.6535V10.1803H8.83008H8.33008V10.6803V13.4344V13.9344H8.83008H10.6934V21.4956C5.03706 21.3333 0.5 16.6955 0.5 11C0.5 5.20194 5.20194 0.5 11 0.5C16.7981 0.5 21.5 5.20194 21.5 11Z" fill="#1A212F"/>
<path d="M21.5 11C21.5 15.5566 18.5954 19.4371 14.5363 20.8891V13.9344H16.4084H16.848L16.9042 13.4985L17.2597 10.7443L17.3325 10.1803H16.7639H14.5363V8.92609C14.5363 8.54978 14.5948 8.37254 14.6719 8.28103C14.7327 8.20882 14.8942 8.08852 15.3979 8.08852H16.8438H17.3438V7.58852V5.13191V4.6939L16.9095 4.63626C16.6332 4.59957 15.7479 4.52365 14.725 4.52365C13.5752 4.52365 12.5553 4.87612 11.8214 5.60153C11.086 6.32846 10.6934 7.37493 10.6934 8.6535V10.1803H8.83008H8.33008V10.6803V13.4344V13.9344H8.83008H10.6934V21.4956C5.03706 21.3333 0.5 16.6955 0.5 11C0.5 5.20194 5.20194 0.5 11 0.5C16.7981 0.5 21.5 5.20194 21.5 11Z" stroke="black"/>
<path d="M21.5 11C21.5 15.5566 18.5954 19.4371 14.5363 20.8891V13.9344H16.4084H16.848L16.9042 13.4985L17.2597 10.7443L17.3325 10.1803H16.7639H14.5363V8.92609C14.5363 8.54978 14.5948 8.37254 14.6719 8.28103C14.7327 8.20882 14.8942 8.08852 15.3979 8.08852H16.8438H17.3438V7.58852V5.13191V4.6939L16.9095 4.63626C16.6332 4.59957 15.7479 4.52365 14.725 4.52365C13.5752 4.52365 12.5553 4.87612 11.8214 5.60153C11.086 6.32846 10.6934 7.37493 10.6934 8.6535V10.1803H8.83008H8.33008V10.6803V13.4344V13.9344H8.83008H10.6934V21.4956C5.03706 21.3333 0.5 16.6955 0.5 11C0.5 5.20194 5.20194 0.5 11 0.5C16.7981 0.5 21.5 5.20194 21.5 11Z" stroke="black" stroke-opacity="0.2"/>
</svg>
