<svg width="63" height="14" viewBox="0 0 63 14" fill="none" xmlns="http://www.w3.org/2000/svg">
<path d="M7.8994 10.4825C7.8188 9.51037 7.23843 8.55447 5.64243 8.47346C6.62583 8.34385 7.98001 6.07562 7.39964 4.39065C6.91601 3.02971 5.4651 3.56436 4.61067 3.82359C4.44946 5.11972 4.82025 7.50136 3.38546 7.80919C3.32097 7.12873 3.44994 5.99461 3.27261 4.81189C2.93406 2.85149 0.548122 3.75878 0 4.00181C0.209576 6.17283 0.177334 6.75609 0.177334 9.36455C0.193455 10.2556 0.0967274 11.6652 0.177334 12.4267C0.403031 14.4519 2.80509 13.9172 3.46606 13.2205C3.46606 12.3619 3.44994 10.6121 3.40158 9.63998C4.46558 9.55897 4.65904 9.8668 4.69128 12.135C4.7074 14.4033 7.38352 13.982 8.17346 13.2043C7.8994 12.3619 7.98001 11.2925 7.8994 10.4825Z" fill="#1A212F"/>
<path d="M9.29804 8.8137C9.29804 13.5122 11.7162 13.901 13.409 13.8524C14.9727 13.8524 17.536 13.415 17.5521 8.8137C17.536 4.8767 15.7949 3.48335 13.4573 3.48335C10.9908 3.48335 9.29804 5.00631 9.29804 8.8137ZM13.4573 6.12422C13.6347 6.12422 14.3117 5.865 14.3117 8.70028C14.3117 10.5473 14.0216 11.6004 13.4412 11.6004C12.9576 11.6004 12.5707 11.1629 12.619 8.70028C12.619 6.46446 13.1833 6.12422 13.4573 6.12422Z" fill="#1A212F"/>
<path d="M20.8692 6.46446C20.8692 7.38795 20.8531 8.40866 20.9014 11.5518C20.9175 12.8155 20.9659 13.8524 22.4168 13.82C23.7065 13.82 24.0289 13.3016 24.174 13.1395C24.2224 11.73 24.1257 8.65168 24.0934 6.51306C24.4481 6.51306 24.7866 6.51306 25.0929 6.49686C26.1247 6.46446 26.4794 5.8488 26.4632 4.99011C26.4471 4.01801 25.6572 3.49956 24.5609 3.49956H21.4979C19.0636 3.51576 18.9024 3.51576 18.7089 3.49956C18.2575 5.41135 18.5316 6.43205 20.3855 6.46446H20.8692Z" fill="#1A212F"/>
<path d="M33.1037 3.56436C31.9752 3.45095 29.2507 3.49956 27.3645 3.58056C27.5741 5.73538 27.5902 8.50587 27.558 10.4663C27.5902 12.3457 27.429 13.658 29.3958 13.7876C30.6855 13.8848 31.411 13.8848 32.5717 13.7876C34.1516 13.658 34.7964 12.7993 34.0387 10.9199C32.7329 11.1143 31.5238 11.1629 30.7661 11.0171C30.7661 10.7903 30.7339 10.0774 30.7661 9.89921C31.4916 9.89921 32.2815 9.8668 32.9747 9.8668C34.4095 9.8668 34.2644 7.54997 32.9586 7.54997C32.0236 7.50136 31.6044 7.59857 30.7339 7.51756V6.23763C31.7173 6.15663 32.1525 6.20523 32.9747 6.23763C34.5224 6.28624 34.5224 3.8884 33.1037 3.56436Z" fill="#1A212F"/>
<path d="M38.1396 0.0324029C37.0756 0.729074 37.14 1.78218 37.8977 2.41405C38.7522 3.02971 40.4288 2.83529 41.5573 2.33304C42.589 1.86319 42.992 0.79388 41.8958 0C40.2676 0.858687 39.1874 0.421242 38.1396 0.0324029ZM43.8787 4.9415C43.8787 3.9694 43.2661 3.49956 42.2988 3.49956C41.1703 3.49956 40.59 3.79119 40.2514 4.82809C39.8484 6.09182 39.2519 8.03602 38.9134 9.38075C38.9134 8.7975 39.0101 5.36275 39.0101 4.9415C39.0101 3.87219 38.4459 3.49956 37.4947 3.49956C36.8337 3.49956 35.6569 3.9208 35.6569 3.9208C35.7536 4.64987 35.8342 5.07112 35.8503 6.02701C35.8826 7.03152 35.8503 8.63548 35.9471 11.811C35.9954 13.3664 36.4952 13.8848 37.7526 13.8362C40.0096 13.7552 40.1547 9.57517 40.7673 8.05222C40.7673 8.74889 40.7351 11.1629 40.7351 11.973C40.7351 13.0747 40.8318 13.8362 42.1054 13.8362C43.2016 13.8362 43.8303 13.4636 44.0238 13.1233C43.8948 12.6373 43.8465 9.68859 43.8465 7.37175C43.8465 6.35105 43.8626 5.45996 43.8787 4.9415Z" fill="#1A212F"/>
<path d="M53.2183 10.4825C53.1377 9.51037 52.5574 8.55447 50.9613 8.47346C51.9447 8.34385 53.2989 6.07562 52.7186 4.39065C52.2349 3.02971 50.784 3.56436 49.9296 3.82359C49.7684 5.11972 50.1392 7.50136 48.7044 7.80919C48.6399 7.12873 48.7689 5.99461 48.5915 4.81189C48.253 2.85149 45.867 3.75878 45.3189 4.00181C45.5285 6.17283 45.4963 6.75609 45.4963 9.36455C45.5124 10.2556 45.4156 11.6652 45.4963 12.4267C45.7219 14.4519 48.124 13.9172 48.785 13.2205C48.785 12.3619 48.7689 10.6121 48.7205 9.63998C49.7845 9.55897 49.978 9.8668 50.0102 12.135C50.0263 14.4033 52.7024 13.982 53.4924 13.2043C53.2183 12.3619 53.2989 11.2925 53.2183 10.4825Z" fill="#1A212F"/>
<path d="M63 13.1395C62.7743 12.5077 62.7904 12.1998 62.7421 11.2925C62.6131 8.92711 62.5808 6.64268 61.807 5.07112C60.5012 2.75428 57.1319 3.38614 55.5036 4.55266C55.3585 7.35555 54.8749 8.50587 54.5686 11.6328C54.3429 13.9172 56.2452 14.5491 58.0185 13.4312C58.0185 13.1557 58.0185 12.1998 58.0991 11.973C58.3087 11.973 59.0987 11.9892 59.405 11.9892C59.405 11.9892 59.3244 12.9289 59.7758 13.4312C60.5818 14.3547 62.4358 14.0792 63 13.1395ZM58.212 9.94781C58.3248 9.07292 58.3248 7.25834 58.3732 6.8695C58.4538 6.80469 59.0019 6.8371 59.0664 6.9181C59.2599 7.67958 59.2599 9.07292 59.3082 9.94781H58.212Z" fill="#1A212F"/>
</svg>
