<svg width="22" height="22" viewBox="0 0 22 22" fill="none" xmlns="http://www.w3.org/2000/svg">
<path d="M3.61893 21.8507C2.56293 20.0987 1.85493 18.2627 1.49493 16.3427C1.13493 14.3987 1.09893 12.4787 1.38693 10.5827C1.67493 8.68671 2.28693 6.87471 3.22293 5.14671C4.18293 3.41872 5.45493 1.87072 7.03893 0.502715L9.23493 1.83471C9.61893 2.09871 9.78693 2.42271 9.73893 2.80672C9.69093 3.16671 9.55893 3.46671 9.34293 3.70671C8.76693 4.42671 8.25093 5.32671 7.79493 6.40672C7.36293 7.46271 7.07493 8.61471 6.93093 9.86271C6.78693 11.1107 6.83493 12.4067 7.07493 13.7507C7.31493 15.0947 7.81893 16.4147 8.58693 17.7107C8.92293 18.2627 9.01893 18.7547 8.87493 19.1867C8.73093 19.6187 8.41893 19.9307 7.93893 20.1227L3.61893 21.8507ZM14.8149 21.8507C13.7589 20.0987 13.0509 18.2627 12.6909 16.3427C12.3309 14.3987 12.2949 12.4787 12.5829 10.5827C12.8709 8.68671 13.4829 6.87471 14.4189 5.14671C15.3789 3.41872 16.6509 1.87072 18.2349 0.502715L20.4309 1.83471C20.8149 2.09871 20.9829 2.42271 20.9349 2.80672C20.8869 3.16671 20.7549 3.46671 20.5389 3.70671C19.9629 4.42671 19.4469 5.32671 18.9909 6.40672C18.5589 7.46271 18.2709 8.61471 18.1269 9.86271C17.9829 11.1107 18.0309 12.4067 18.2709 13.7507C18.5109 15.0947 19.0149 16.4147 19.7829 17.7107C20.1189 18.2627 20.2149 18.7547 20.0709 19.1867C19.9269 19.6187 19.6149 19.9307 19.1349 20.1227L14.8149 21.8507Z" fill="#FAC663"/>
</svg>
