<svg width="32" height="35" viewBox="0 0 32 35" fill="none" xmlns="http://www.w3.org/2000/svg">
<path d="M23.7939 6.90844L29.9295 0.772302C30.5089 0.192794 31.5 0.603134 31.5 1.423V14.5045C29.9569 11.2372 26.8527 8.87729 23.7939 6.90844Z" fill="#FF7236" stroke="black"/>
<path d="M31.5003 18.9966C31.5003 27.5579 24.5606 34.498 16.0004 34.498C7.44012 34.498 0.500488 27.5578 0.500488 18.9966C0.500488 10.477 7.39655 4.49524 16.0004 4.49524C24.6042 4.49524 31.5003 10.4768 31.5003 18.9966Z" fill="#FFAA50" stroke="black"/>
<path d="M7.5833 6.28536L7.84307 6.54515L8.16861 6.37487C10.4656 5.1734 13.1352 4.49505 16.0002 4.49505C16.3378 4.49505 16.6727 4.50462 17.0047 4.52336C11.9945 6.684 8.50025 12.0755 8.50025 18.9964C8.50025 26.0163 12.0996 32.0858 17.2535 34.4466C16.8401 34.4804 16.4221 34.4978 16.0001 34.4978C7.43987 34.4978 0.500244 27.5577 0.500244 18.9964V18.9943V18.9922V18.9902V18.9881V18.986V18.984V18.9819V18.9799V18.9778V18.9758V18.9738V18.9718V18.9698V18.9697V18.9678V18.9677V18.9658V18.9657V18.9638V18.9637V18.9619V18.9617V18.9599V18.9597V18.958V18.9578V18.956V18.9558V18.9541V18.9539V18.9522V18.9519V18.9502V18.95V18.9483V18.9481V18.9464V18.9462V18.9445V18.9443V18.9426V18.9424V18.9408V18.9405V18.9389V18.9386V18.937V18.9368V18.9352V18.9349V18.9333V18.933V18.9315V18.9312V18.9297V18.9294V18.9279V18.9275V18.926V18.9257V18.9242V18.9239V18.9224V18.9221V18.9207V18.9203V18.9189V18.9185V18.9171V18.9167V18.9153V18.915V18.9136V18.9132V18.9118V18.9115V18.9101V18.9097V18.9084V18.908V18.9067V18.9063V18.9049V18.9045V18.9032V18.9028V18.9015V18.9011V18.8998V18.8994V18.8982V18.8977V18.8965V18.8961V18.8948V18.8944V18.8932V18.8927V18.8915V18.8911V18.8899V18.8894V18.8883V18.8878V18.8866V18.8862V18.885V18.8846V18.8834V18.8829V18.8818V18.8813V18.8802V18.8797V18.8786V18.8782V18.8771V18.8766V18.8755V18.875V18.8739V18.8734V18.8724V18.8719V18.8708V18.8703V18.8693V18.8688V18.8678V18.8673V18.8663V18.8658V18.8648V18.8642V18.8633V18.8627V18.8618V18.8612V18.8603V18.8598V18.8588V18.8583V18.8573V18.8568V18.8559V18.8553V18.8544V18.8539V18.853V18.8524V18.8515V18.851V18.8501V18.8496V18.8487V18.8482V18.8473V18.8467V18.8459V18.8453V18.8445V18.8439V18.8431V18.8426V18.8417V18.8412V18.8403V18.8398V18.839V18.8384V18.8376V18.8371V18.8363V18.8357V18.8349V18.8344V18.8336V18.8331V18.8323V18.8317V18.831V18.8304V18.8297V18.8291V18.8284V18.8278V18.8271V18.8265V18.8258V18.8253V18.8245V18.824V18.8233V18.8227V18.822V18.8215V18.8208V18.8202V18.8195V18.819V18.8183V18.8178V18.8171V18.8165V18.8159V18.8153V18.8147V18.8141V18.8135V18.8129V18.8123V18.8117V18.8111V18.8105V18.8099V18.8094V18.8088V18.8082V18.8076V18.807V18.8064V18.8059V18.8053V18.8048V18.8042V18.8036V18.8031V18.8025V18.8019V18.8014V18.8008V18.8003V18.7997V18.7992V18.7986V18.7981V18.7976V18.797V18.7965V18.7959V18.7954V18.7949V18.7944V18.7938V18.7933V18.7928V18.7923V18.7917V18.7912V18.7907V18.7902V18.7897V18.7892V18.7886V18.7882V18.7876V18.7872V18.7866V18.7862V18.7857V18.7852V18.7847V18.7842V18.7837V18.7832V18.7827V18.7823V18.7818V18.7813V18.7808V18.7804V18.7799V18.7795V18.7789V18.7785V18.778V18.7776V18.7771V18.7767V18.7762V18.7758V18.7753V18.7749V18.7744V18.774V18.7735V18.7731V18.7726V18.7723V18.7718V18.7714V18.7709V18.7706V18.7701V18.7697V18.7692V18.7689V18.7684V18.768V18.7676V18.7672V18.7667V18.7664V18.7659V18.7656V18.7651V18.7648V18.7643V18.764V18.7636V18.7632V18.7628V18.7625V18.762V18.7617V18.7613V18.7609V18.7605V18.7602V18.7598V18.7595V18.759V18.7587V18.7583V18.758V18.7576V18.7573V18.7569V18.7566V18.7562V18.7559V18.7555V18.7552V18.7548V18.7545V18.7541V18.7538V18.7534V18.7532V18.7528V18.7525V18.7521V18.7519V18.7515V18.7512V18.7508V18.7506V18.7502V18.75V18.7496V18.7494V18.749V18.7488V18.7484V18.7482V18.7478V18.7476V18.7472V18.747V18.7466V18.7464V18.7461V18.7458V18.7455V18.7453V18.7449V18.7447V18.7444V18.7442V18.7439V18.7437V18.7433V18.7431V18.7428V18.7426V18.7423V18.7421V18.7418V18.7416V18.7413V18.7411V18.7408V18.7406V18.7403V18.7402V18.7399V18.7397V18.7394V18.7392V18.7389V18.7388V18.7385V18.7383V18.7381V18.7379V18.7376V18.7375V18.7372V18.7371V18.7368V18.7367V18.7364V18.7362V18.7359V18.7355V18.7351V18.7347V18.7344V18.734V18.7337V18.7333V18.733V18.7327V18.7324V18.7321V18.7318V18.7315V18.7312V18.7309V18.7307V18.7304V18.7302V18.7299V18.7297V18.7295V18.7293V18.7291V18.7291V18.7289V18.7287V18.7285V18.7283V18.7282V18.728V18.7278V1.423C0.500244 0.603134 1.49132 0.192794 2.07077 0.772302L7.5833 6.28536Z" fill="#FF7236" stroke="black"/>
<path d="M15.4999 25.9971C15.4999 27.3084 14.2318 28.4973 12.4999 28.4973C10.7681 28.4973 9.5 27.3084 9.5 25.9971C9.5 24.6857 10.7681 23.4968 12.4999 23.4968C14.2318 23.4968 15.4999 24.6857 15.4999 25.9971Z" fill="#FFFDFB" stroke="black"/>
<path d="M22.5001 25.9971C22.5001 27.3084 21.232 28.4973 19.5002 28.4973C17.7683 28.4973 16.5002 27.3084 16.5002 25.9971C16.5002 24.6857 17.7683 23.4968 19.5002 23.4968C21.232 23.4968 22.5001 24.6857 22.5001 25.9971Z" fill="#FFFDFB" stroke="black"/>
<path d="M17.5003 23.9975C17.5003 24.8261 16.8286 25.4977 16.0003 25.4977C15.1719 25.4977 14.5002 24.8261 14.5002 23.9975C14.5002 23.1689 15.1719 22.4973 16.0003 22.4973C16.8286 22.4973 17.5003 23.1689 17.5003 23.9975Z" fill="#FF913C" stroke="black"/>
<path d="M10.0002 19.4965C9.72381 19.4965 9.50024 19.2728 9.50024 18.9964V17.9964C9.50024 17.7201 9.72388 17.4963 10.0002 17.4963C10.2765 17.4963 10.5001 17.7201 10.5001 17.9964V18.9964C10.5001 19.2727 10.2765 19.4965 10.0002 19.4965Z" fill="#1A212F" stroke="black"/>
<path d="M22.4999 18.9964V18.9965C22.5 19.2727 22.2764 19.4965 22 19.4965C21.7236 19.4965 21.5 19.2728 21.5 18.9964V17.9964C21.5 17.7201 21.7236 17.4963 22 17.4963C22.2763 17.4963 22.4999 17.7201 22.4999 17.9964V18.9964Z" fill="#1A212F" stroke="black"/>
</svg>
