<svg width="259" height="284" viewBox="0 0 259 284" fill="none" xmlns="http://www.w3.org/2000/svg">
<path d="M41.4976 170.596C87.5624 163.522 123.702 224.686 89.1797 253.413C74.2903 265.802 52.6735 264.622 35.7736 254.181C-3.2565 230.063 1.94404 176.663 41.4976 170.596Z" fill="#FAC663" fill-opacity="0.15"/>
<path d="M79.3316 150.412C41.1451 182.187 -20.87 122.749 7.0933 81.2256C19.8346 62.3089 47.7178 59.0579 70.3676 76.6809C95.7613 96.4276 100.799 132.549 79.3316 150.412Z" fill="#FAC663" fill-opacity="0.15"/>
<path d="M179.189 264.976C183.348 259.004 192.024 250.168 201.769 241.825C212.064 232.998 223.549 224.719 232.127 220.926C255.32 210.716 271.229 175.489 244.737 151.864C220.244 130.025 202.435 147.249 179.739 126.124C156.814 104.762 130.42 107.21 114.099 122.315C98.9959 136.298 92.5276 161.127 105.467 187.934C119.261 216.495 99.2893 230.685 113.261 261.265C128.372 294.397 164.314 286.359 179.189 264.976Z" fill="#FAC663" fill-opacity="0.15"/>
<path d="M146.541 94.4914C135.739 103.479 121.569 104.528 108.925 98.6074C71.3308 81.0002 65.6686 18.0311 101.004 3.12309C145.684 -15.7493 184.706 62.7339 146.541 94.4914Z" fill="#FAC663" fill-opacity="0.15"/>
<path d="M197.89 126.599C162.228 104.902 162.707 41.7521 199.458 30.916C243.725 17.8614 275.7 93.821 238.937 124.412C227.139 134.229 211.447 134.848 197.89 126.599Z" fill="#FAC663" fill-opacity="0.15"/>
</svg>
